<svg width="127" height="36" viewBox="0 0 127 36" fill="none" xmlns="http://www.w3.org/2000/svg">
<path d="M36.1731 20.6055V11.7211H40.4877V27.2109H36.3442V24.381H36.1834C35.8438 25.2732 35.2326 26.0378 34.4349 26.5681C33.5567 27.1355 32.5256 27.4237 31.4787 27.3946C30.5187 27.4129 29.572 27.1694 28.7414 26.6905C27.9444 26.2118 27.303 25.5151 26.8937 24.6837C26.4242 23.7137 26.1898 22.6478 26.2094 21.5715V11.7075H30.5069V20.8062C30.4697 21.5952 30.7337 22.3691 31.246 22.9728C31.4933 23.2366 31.7949 23.4443 32.1303 23.5817C32.4657 23.719 32.827 23.7828 33.1895 23.7687C33.6961 23.7763 34.1967 23.6595 34.6471 23.4286C35.1084 23.1847 35.4904 22.8154 35.7488 22.364C36.0509 21.828 36.1977 21.2193 36.1731 20.6055Z" fill="#30104C"/>
<path d="M43.9333 27.2109V11.7211H48.118V14.4218H48.2788C48.4996 13.5595 49.0013 12.7941 49.7056 12.2449C50.3704 11.7526 51.1794 11.4909 52.0083 11.5C52.237 11.5015 52.4654 11.5151 52.6927 11.5408C52.9151 11.5634 53.1357 11.6009 53.353 11.653V15.4592C53.0772 15.3836 52.7957 15.3302 52.5113 15.2993C52.1848 15.254 51.8556 15.2301 51.5259 15.2279C50.9298 15.2155 50.3406 15.3561 49.8151 15.636C49.3275 15.9004 48.9217 16.292 48.6415 16.7687C48.3597 17.2795 48.2225 17.8566 48.2446 18.4388V27.2109H43.9333Z" fill="#30104C"/>
<path d="M55.5942 27.2109V11.7211H59.7789V14.4218H59.9397C60.1605 13.5586 60.6636 12.7928 61.3699 12.2449C62.0363 11.751 62.8484 11.4903 63.6795 11.5034C63.9082 11.5049 64.1366 11.5185 64.3638 11.5442C64.5862 11.5668 64.8068 11.6043 65.0242 11.6565V15.4592C64.7484 15.3836 64.4669 15.3302 64.1825 15.2993C63.8571 15.2541 63.529 15.2303 63.2005 15.2279C62.6043 15.2148 62.0149 15.3554 61.4897 15.6361C61.0016 15.901 60.5949 16.2924 60.3126 16.7687C60.0189 17.2761 59.8699 17.8535 59.8815 18.4388V27.2109H55.5942Z" fill="#30104C"/>
<path d="M71.6655 27.483C70.7535 27.5006 69.8482 27.3243 69.0103 26.966C68.2595 26.6404 67.62 26.1052 67.1695 25.4252C66.6935 24.6592 66.4554 23.7706 66.4851 22.8708C66.4606 22.1212 66.6253 21.3775 66.9642 20.7075C67.269 20.1352 67.7152 19.6495 68.261 19.2959C68.8407 18.9287 69.4761 18.6565 70.1428 18.4898C70.8659 18.3042 71.6027 18.1768 72.3464 18.1089C73.2588 18.0136 73.9887 17.924 74.5362 17.8401C74.9601 17.8009 75.3707 17.6721 75.7406 17.4626C75.8631 17.3817 75.9623 17.2705 76.0283 17.1398C76.0943 17.0092 76.1248 16.8637 76.117 16.7177V16.6667C76.1329 16.3908 76.0868 16.1149 75.982 15.859C75.8773 15.603 75.7165 15.3735 75.5113 15.1871C75.0256 14.8086 74.4163 14.6221 73.8005 14.6633C73.1431 14.6294 72.4924 14.8084 71.946 15.1735C71.5075 15.4838 71.1868 15.9319 71.0359 16.4456L67.0429 16.1054C67.2289 15.2042 67.6408 14.3642 68.2404 13.6633C68.865 12.9537 69.6559 12.4081 70.5432 12.0748C71.59 11.6825 72.7025 11.492 73.8211 11.5136C74.6597 11.5109 75.4954 11.6126 76.3086 11.8163C77.0649 12.0004 77.7821 12.3172 78.4265 12.7517C79.0394 13.1699 79.5417 13.7287 79.891 14.381C80.2687 15.1171 80.4534 15.936 80.4282 16.7619V27.2109H76.3223V25.0476H76.1991C75.9489 25.5309 75.6087 25.9626 75.1966 26.3197C74.7544 26.7002 74.2419 26.9914 73.6876 27.1769C73.0354 27.3903 72.352 27.4937 71.6655 27.483ZM72.9007 24.5238C73.4864 24.5382 74.0667 24.4098 74.5909 24.1497C75.0575 23.9169 75.4531 23.5647 75.7372 23.1293C76.0157 22.6936 76.1597 22.1863 76.1512 21.6701V20.0204C75.9796 20.1249 75.7942 20.205 75.6003 20.2585C75.3676 20.3299 75.1042 20.3912 74.8168 20.449C74.5293 20.5068 74.2351 20.5578 73.9442 20.602L73.1539 20.7177C72.6984 20.7736 72.2522 20.8879 71.8263 21.0578C71.4809 21.1957 71.1769 21.4194 70.9435 21.7075C70.7268 22.0029 70.617 22.3626 70.6321 22.7279C70.6173 22.9861 70.6686 23.2438 70.781 23.4769C70.8935 23.7101 71.0636 23.9111 71.2754 24.0612C71.7545 24.382 72.3234 24.544 72.9007 24.5238Z" fill="#30104C"/>
<path d="M87.528 18.2483V27.2109H83.21V11.7211H87.3159V14.4422H87.5007C87.8281 13.5607 88.436 12.8095 89.232 12.3027C90.1148 11.7548 91.1411 11.479 92.1814 11.5102C93.1702 11.4868 94.1469 11.7301 95.0077 12.2143C95.8142 12.691 96.4653 13.389 96.8827 14.2245C97.3534 15.1974 97.5845 16.2677 97.5568 17.3469V27.2109H93.2421V18.1088C93.2961 17.3022 93.0337 16.5061 92.5099 15.8877C92.2487 15.6161 91.9316 15.4037 91.5802 15.2652C91.2288 15.1266 90.8515 15.0652 90.474 15.085C89.9391 15.0752 89.4107 15.2042 88.9412 15.4592C88.4984 15.7102 88.141 16.0868 87.9147 16.5408C87.6527 17.0719 87.5202 17.6568 87.528 18.2483Z" fill="#30104C"/>
<path d="M108.656 11.721V14.9455H99.2847V11.721H108.656ZM101.413 8.01697H105.728V22.4489C105.71 22.7664 105.772 23.0832 105.909 23.3707C106.021 23.5697 106.199 23.7246 106.412 23.8095C106.656 23.8996 106.915 23.9434 107.175 23.9387C107.379 23.9392 107.583 23.921 107.784 23.8843L108.249 23.7993L108.934 26.9898C108.718 27.0578 108.414 27.136 108.023 27.2279C107.553 27.3285 107.074 27.3843 106.593 27.3945C105.661 27.4532 104.728 27.3117 103.856 26.9796C103.115 26.69 102.484 26.1759 102.053 25.5102C101.594 24.7525 101.371 23.8766 101.413 22.9932V8.01697Z" fill="#30104C"/>
<path d="M113.3 27.3061C114.422 27.3061 115.332 26.4016 115.332 25.2857C115.332 24.1699 114.422 23.2653 113.3 23.2653C112.177 23.2653 111.267 24.1699 111.267 25.2857C111.267 26.4016 112.177 27.3061 113.3 27.3061Z" fill="#2565F4"/>
<path d="M16.6427 27.5204C15.1497 27.5626 13.6733 27.1992 12.3726 26.4694C11.1939 25.779 10.2428 24.7626 9.6353 23.5442C8.98078 22.2011 8.65486 20.7233 8.68409 19.2313C8.65146 17.729 8.98114 16.2408 9.64556 14.8911C10.2577 13.6767 11.2078 12.6626 12.3828 11.9694C13.6733 11.2417 15.1392 10.8782 16.6222 10.9183C17.9 10.8888 19.1676 11.1506 20.3278 11.6836C21.3485 12.1557 22.2195 12.8969 22.8461 13.8265C23.4811 14.7954 23.8362 15.919 23.8726 17.0748H19.6332C19.5468 16.3404 19.2141 15.6562 18.6889 15.1326C18.4228 14.8834 18.1092 14.6897 17.7666 14.5629C17.424 14.4362 17.0593 14.3789 16.6941 14.3945C16.0423 14.3854 15.4051 14.5859 14.8772 14.966C14.3353 15.3824 13.9226 15.9424 13.6865 16.5816C13.3782 17.4081 13.2307 18.2854 13.2519 19.1666C13.2297 20.0585 13.3747 20.9466 13.6796 21.7857C13.9162 22.4367 14.3354 23.0068 14.8875 23.4285C15.4163 23.8085 16.0554 24.0067 16.7078 23.9932C17.1888 24.0023 17.6647 23.8937 18.0935 23.6768C18.51 23.4674 18.8639 23.1531 19.12 22.7653C19.4034 22.3262 19.5856 21.8302 19.6538 21.3129H23.8658C23.8221 22.4624 23.4752 23.5802 22.8598 24.5544C22.25 25.4934 21.3933 26.2486 20.3826 26.7381C19.2144 27.2853 17.9337 27.5532 16.6427 27.5204Z" fill="#30104C"/>
<path d="M14.7916 16.1633C14.8125 14.5 14.3517 12.8659 13.464 11.4558C12.499 11.8084 11.6282 12.3763 10.9184 13.1157C11.4829 13.4558 11.6951 14.9286 11.6951 14.9286C12.1809 17.6021 10.3949 18.5613 10.3949 18.5613C9.72541 18.9631 9.15211 19.5052 8.71484 20.1497C8.71484 20.2245 8.74222 20.4524 8.75932 20.5851C8.88066 21.752 9.24417 22.8812 9.82687 23.9014C10.1275 24.4253 10.4943 24.9088 10.9184 25.3402C11.0107 25.432 11.1681 25.5851 11.2605 25.6803L11.11 25.4184C10.9664 25.1882 10.8515 24.9415 10.7678 24.6837C10.6447 24.3865 10.5898 24.0658 10.607 23.7449C10.7678 21.7687 12.66 20.5442 12.66 20.5442C13.3027 20.002 13.8244 19.3321 14.1915 18.5777C14.5586 17.8233 14.763 17.0009 14.7916 16.1633Z" fill="#2565F4"/>
</svg>
